<svg height="454pt" viewBox="0 -4 454.995 454" width="454pt" xmlns="http://www.w3.org/2000/svg"><path d="m46.03125 110.089844c-3.515625-27.554688 10.050781-54.484375 34.285156-68.054688 24.238282-13.574218 54.289063-11.070312 75.945313 6.328125 23.976562-35.457031 66.507812-53.5625 108.683593-46.277343 42.175782 7.289062 76.160157 38.621093 86.851563 80.066406 26.53125-12.992188 58.3125-8.378906 80.050781 11.621094 21.742188 20.003906 28.980469 51.292968 18.242188 78.8125-10.742188 27.515624-37.265625 45.628906-66.804688 45.613281h-328.882812c-28.410156.015625-52.046875-21.847657-54.238282-50.179688-2.195312-28.328125 17.792969-53.570312 45.867188-57.929687zm0 0" fill="#d9ecf2"/><path d="m378.820312 211.199219h-7.878906l6.964844-6.96875c2.734375-2.734375 2.734375-7.167969 0-9.898438-2.730469-2.734375-7.164062-2.734375-9.898438 0l-16.863281 16.867188h-23.027343l16.765624-16.761719c2.734376-2.734375 2.734376-7.164062 0-9.898438-2.734374-2.734374-7.164062-2.734374-9.898437 0l-16.769531 16.765626v-23.03125l16.871094-16.867188c2.730468-2.734375 2.730468-7.164062 0-9.898438-2.734376-2.734374-7.167969-2.734374-9.902344 0l-6.96875 6.972657v-7.886719c0-3.863281-3.132813-7-7-7-3.863282 0-7 3.136719-7 7v7.886719l-6.964844-6.96875c-2.734375-2.734375-7.167969-2.734375-9.902344 0s-2.734375 7.164062 0 9.898437l16.867188 16.867188v23.027344l-16.765625-16.765626c-2.734375-2.734374-7.167969-2.734374-9.902344 0-2.734375 2.734376-2.734375 7.164063 0 9.898438l16.769531 16.769531h-23.023437l-16.867188-16.867187c-2.734375-2.734375-7.167969-2.734375-9.902343 0-2.734376 2.734375-2.734376 7.164062 0 9.898437l6.960937 6.960938h-7.878906c-3.867188 0-7 3.132812-7 7h146.679687c.851563 0 1.679688-.101563 2.523438-.128907-.066406-3.8125-3.175782-6.871093-6.988282-6.871093zm0 0" fill="#bdd9e5"/><path d="m383.285156 74.789062c-6.484375.007813-12.933594.90625-19.171875 2.667969 34.550781 9.578125 56.710938 43.214844 51.871094 78.742188-4.839844 35.527343-35.183594 62.011719-71.039063 62h38.339844c39.601563 0 71.703125-32.105469 71.703125-71.703125 0-39.601563-32.101562-71.707032-71.703125-71.707032zm0 0" fill="#bdd9e5"/><path d="m313.453125 82.148438c9.792969-4.835938 20.566406-7.351563 31.488281-7.363282 1.597656 0 3.132813.136719 4.699219.238282-17-51.34375-69.167969-82.375-122.402344-72.800782 41.878907 7.527344 75.542969 38.738282 86.214844 79.925782zm0 0" fill="#bdd9e5"/><path d="m350.054688 134.957031s21.710937-11.078125 22.503906-59.324219c-7.210938 1.105469-14.210938 3.300782-20.761719 6.515626 3.609375 17.492187 3.011719 35.59375-1.742187 52.808593zm0 0" fill="#bdd9e5"/><path d="m126.019531 289.636719h26c3.867188 0 7-3.132813 7-7 0-3.863281-3.132812-7-7-7h-12l8.34375-8.34375c2.734375-2.730469 2.734375-7.164063 0-9.898438s-7.164062-2.734375-9.898437 0l-8.339844 8.363281v-12c0-3.863281-3.136719-7-7-7-3.867188 0-7 3.136719-7 7v26l-10.800781 10.800782-10.800781-10.800782v-26c0-3.863281-3.132813-7-7-7-3.867188 0-7 3.136719-7 7v12l-8.320313-8.34375c-2.734375-2.734374-7.164063-2.734374-9.898437 0-2.734376 2.734376-2.734376 7.167969 0 9.902344l8.347656 8.320313h-12c-3.867188 0-7 3.136719-7 7 0 3.867187 3.132812 7 7 7h26l10.800781 10.800781-10.800781 10.800781h-26c-3.867188 0-7 3.132813-7 7 0 3.867188 3.132812 7 7 7h12l-8.34375 8.34375c-2.734375 2.734375-2.734375 7.167969 0 9.902344 2.734375 2.730469 7.164062 2.730469 9.898437 0l8.34375-8.347656v12c0 3.867187 3.136719 7 7 7 3.867188 0 7-3.132813 7-7v-26l10.800781-10.796875 10.800782 10.796875v26c0 3.867187 3.132812 7 7 7 3.867187 0 7-3.132813 7-7v-12l8.34375 8.347656c2.734375 2.730469 7.167968 2.730469 9.898437 0 2.734375-2.734375 2.734375-7.167969 0-9.902344l-8.375-8.34375h12c3.867188 0 7-3.132812 7-7 0-3.867187-3.132812-7-7-7h-26l-10.800781-10.800781zm0 0" fill="#26a3b9"/><path d="m140.742188 257.414062c1.316406 1.3125 2.054687 3.09375 2.054687 4.949219 0 1.859375-.738281 3.640625-2.054687 4.953125l-8.34375 8.320313h7.621093l8.34375-8.34375c2.503907-2.535157 2.699219-6.550781.453125-9.316407-2.246094-2.769531-6.210937-3.40625-9.210937-1.480468.410156.265625.792969.574218 1.136719.917968zm0 0" fill="#168aa5"/><path d="m86.929688 253.769531v26l10.796874 10.800781 3.8125-3.8125-6.992187-7v-26c.003906-2.5625-1.402344-4.921874-3.652344-6.144531-2.253906-1.222656-4.996093-1.113281-7.144531.285157 1.988281 1.289062 3.183594 3.5 3.179688 5.871093zm0 0" fill="#168aa5"/><path d="m122.5 253.769531v12l7.621094-7.617187v-4.382813c0-2.5625-1.402344-4.921875-3.65625-6.144531s-4.996094-1.113281-7.144532.285156c1.984376 1.289063 3.179688 3.496094 3.179688 5.859375zm0 0" fill="#168aa5"/><path d="m151.386719 282.660156c0 3.863282-3.132813 7-7 7h7.621093c3.867188 0 7-3.136718 7-7 0-3.867187-3.132812-7-7-7h-7.621093c3.867187 0 7 3.132813 7 7zm0 0" fill="#168aa5"/><path d="m118.398438 289.660156-10.785157 10.78125 10.785157 10.785156h7.621093l-10.785156-10.785156 10.785156-10.78125zm0 0" fill="#168aa5"/><path d="m122.5 335.125v12c-.003906 2.371094-1.207031 4.578125-3.199219 5.863281 2.148438 1.398438 4.890625 1.507813 7.144531.285157 2.253907-1.222657 3.65625-3.582032 3.65625-6.148438v-4.378906zm0 0" fill="#168aa5"/><path d="m140.019531 325.238281h-7.621093l8.34375 8.34375c1.492187 1.492188 2.226562 3.574219 2.007812 5.671875-.222656 2.097656-1.378906 3.980469-3.144531 5.128906 3 1.925782 6.964843 1.289063 9.210937-1.480468 2.246094-2.769532 2.050782-6.78125-.453125-9.320313zm0 0" fill="#168aa5"/><path d="m64.585938 257.414062 8.34375 8.34375v-7.621093l-.726563-.722657c-2.335937-2.335937-5.988281-2.71875-8.757813-.917968.410157.265625.792969.574218 1.140626.917968zm0 0" fill="#168aa5"/><path d="m152.007812 311.238281h-7.621093c3.867187 0 7 3.132813 7 7 0 3.867188-3.132813 7-7 7h7.621093c3.867188 0 7-3.132812 7-7 0-3.867187-3.132812-7-7-7zm0 0" fill="#168aa5"/><path d="m72.929688 335.125-8.34375 8.34375c-.347657.347656-.730469.65625-1.140626.921875 2.769532 1.804687 6.425782 1.421875 8.757813-.921875l.726563-.722656zm0 0" fill="#168aa5"/><path d="m97.714844 310.34375-10.796875 10.800781v26c-.003907 2.367188-1.210938 4.574219-3.203125 5.859375 2.148437 1.398438 4.890625 1.507813 7.144531.285156 2.253906-1.222656 3.65625-3.582031 3.65625-6.144531v-26l6.976563-6.976562zm0 0" fill="#168aa5"/><path d="m378.824219 218.199219c0-3.867188-3.132813-7-7-7h-7.882813l6.964844-6.96875c2.734375-2.734375 2.734375-7.167969 0-9.898438-2.730469-2.734375-7.164062-2.734375-9.898438 0l-16.863281 16.867188h-23.027343l16.765624-16.761719c2.734376-2.734375 2.734376-7.164062 0-9.898438-2.734374-2.734374-7.164062-2.734374-9.898437 0l-16.769531 16.765626v-23.03125l16.871094-16.867188c2.730468-2.734375 2.730468-7.164062 0-9.898438-2.734376-2.734374-7.167969-2.734374-9.902344 0l-6.964844 6.972657v-7.886719c0-3.863281-3.132812-7-7-7-3.863281 0-7 3.136719-7 7v7.886719l-6.964844-6.96875c-2.734375-2.734375-7.167968-2.734375-9.902344 0-2.734374 2.734375-2.734374 7.164062 0 9.898437l16.867188 16.867188v23.027344l-16.765625-16.765626c-2.734375-2.734374-7.167969-2.734374-9.902344 0-2.734375 2.734376-2.734375 7.164063 0 9.898438l16.769531 16.769531h-23.035156l-16.867187-16.867187c-2.734375-2.734375-7.167969-2.734375-9.902344 0s-2.734375 7.164062 0 9.898437l6.96875 6.96875h-7.878906c-3.867188 0-7 3.132813-7 7 0 3.867188 3.132812 7 7 7h7.878906l-6.96875 6.96875c-2.734375 2.734375-2.734375 7.164063 0 9.898438s7.167969 2.734375 9.902344 0l16.867187-16.875h23.027344l-16.769531 16.765625c-2.734375 2.734375-2.734375 7.167968 0 9.902344 2.734375 2.734374 7.167969 2.734374 9.902343 0l16.765626-16.769532v23.027344l-16.867188 16.871094c-2.734375 2.730468-2.734375 7.164062 0 9.898437s7.167969 2.734375 9.898438 0l6.96875-6.96875v7.878907c0 3.867187 3.136718 7 7 7 3.867187 0 7-3.132813 7-7v-7.878907l6.96875 6.96875c2.734374 2.734375 7.167968 2.734375 9.902343 0 2.730469-2.734375 2.730469-7.167969 0-9.898437l-16.871093-16.871094v-23.027344l16.769531 16.769532c2.730469 2.734374 7.164062 2.734374 9.898437.003906 2.734375-2.734375 2.738282-7.164063.003906-9.902344l-16.765624-16.769531h23.027343l16.867188 16.867187c2.734375 2.734375 7.167969 2.734375 9.898437 0 2.734375-2.734375 2.734375-7.164062 0-9.898437l-6.96875-6.96875h7.882813c3.867187 0 7-3.132813 7-7zm0 0" fill="#26a3b9"/><g fill="#168aa5"><path d="m273.667969 184.53125 16.769531 16.765625v-6.796875l-10-10c-2.214844-2.203125-5.621094-2.671875-8.339844-1.140625.574219.3125 1.105469.707031 1.570313 1.171875zm0 0"/><path d="m280.449219 251.867188 10-10v-6.800782l-16.769531 16.769532c-.464844.449218-.988282.832031-1.558594 1.140624 2.714844 1.550782 6.140625 1.085938 8.339844-1.140624zm0 0"/><path d="m283.484375 151.511719 6.96875 6.96875v-6.800781l-.1875-.1875c-2.214844-2.203126-5.621094-2.671876-8.339844-1.140626.570313.308594 1.09375.699219 1.558594 1.160157zm0 0"/><path d="m240.644531 194.335938 16.867188 16.867187h6.800781l-16.867188-16.867187c-2.214843-2.203126-5.621093-2.671876-8.339843-1.140626.5625.304688 1.082031.691407 1.539062 1.140626zm0 0"/><path d="m364.128906 194.335938c1.3125 1.3125 2.050782 3.089843 2.050782 4.949218 0 1.855469-.738282 3.636719-2.050782 4.949219l-6.96875 6.964844h6.800782l6.96875-6.96875c2.484374-2.460938 2.765624-6.378907.65625-9.167969-2.105469-2.789062-5.953126-3.589844-8.996094-1.871094.5625.308594 1.082031.691406 1.539062 1.144532zm0 0"/><path d="m321.304688 151.511719c1.3125 1.3125 2.050781 3.09375 2.050781 4.949219 0 1.855468-.738281 3.636718-2.050781 4.949218l-16.867188 16.867188v23.027344l6.796875-6.796876v-16.234374l16.871094-16.867188c2.484375-2.460938 2.765625-6.378906.65625-9.167969-2.105469-2.789062-5.953125-3.589843-8.996094-1.871093.5625.308593 1.082031.691406 1.539063 1.144531zm0 0"/><path d="m331.105469 184.53125c1.3125 1.3125 2.050781 3.09375 2.050781 4.949219s-.738281 3.636719-2.050781 4.949219l-16.769531 16.769531h6.800781l16.746093-16.761719c2.484376-2.457031 2.769532-6.378906.660157-9.167969-2.105469-2.789062-5.953125-3.589843-9-1.871093.570312.304687 1.097656.683593 1.5625 1.132812zm0 0"/><path d="m304.4375 150.59375v7.886719l6.796875-6.800781v-1.105469c0-3.867188-3.132813-7-7-7-1.1875.007812-2.355469.320312-3.390625.914062 2.222656 1.226563 3.597656 3.566407 3.59375 6.105469zm0 0"/><path d="m363.941406 225.199219h-6.800781l6.96875 6.96875c1.3125 1.3125 2.050781 3.089843 2.050781 4.949219 0 1.855468-.738281 3.636718-2.050781 4.949218-.464844.453125-.992187.835938-1.5625 1.140625 3.046875 1.71875 6.894531.917969 9-1.871093 2.109375-2.792969 1.824219-6.710938-.660156-9.167969zm0 0"/><path d="m321.117188 225.199219h-6.800782l16.769532 16.765625c1.3125 1.3125 2.050781 3.09375 2.050781 4.953125 0 1.855469-.738281 3.636719-2.050781 4.949219-.464844.449218-.992188.835937-1.5625 1.140624 3.046874 1.714844 6.890624.917969 9-1.875 2.105468-2.789062 1.824218-6.707031-.660157-9.167968zm0 0"/><path d="m257.511719 225.199219-16.867188 16.867187c-.464843.453125-.988281.835938-1.558593 1.140625 2.714843 1.554688 6.136718 1.085938 8.339843-1.140625l16.859375-16.867187zm0 0"/><path d="m371.824219 211.199219h-6.800781c3.867187 0 7 3.132812 7 7 0 3.867187-3.132813 7-7 7h6.800781c3.867187 0 7-3.132813 7-7 0-3.867188-3.132813-7-7-7zm0 0"/><path d="m290.4375 277.921875-6.953125 6.96875c-.464844.449219-.988281.835937-1.558594 1.140625 2.71875 1.527344 6.125 1.0625 8.339844-1.140625l.1875-.1875zm0 0"/><path d="m304.4375 277.921875v7.878906c-.003906 2.535157-1.382812 4.867188-3.601562 6.089844 1.035156.589844 2.203124.90625 3.390624.910156 3.867188 0 7-3.132812 7-7v-1.097656zm0 0"/><path d="m311.21875 258.125v-16.246094l-6.796875-6.800781v23.027344l16.867187 16.871093c1.3125 1.308594 2.050782 3.089844 2.050782 4.949219 0 1.855469-.738282 3.636719-2.050782 4.949219-.464843.449219-.992187.835938-1.5625 1.140625 3.046876 1.71875 6.894532.917969 9-1.871094 2.109376-2.792969 1.828126-6.710937-.660156-9.167969zm0 0"/></g><path d="m306.988281 374.4375h-14.5l10.398438-10.398438c2.734375-2.734374 2.734375-7.167968 0-9.902343-2.734375-2.730469-7.164063-2.730469-9.898438 0l-20.304687 20.300781h-5.859375c-2.035157-5.421875-6.316407-9.703125-11.738281-11.738281v-5.859375l20.292968-20.296875c2.738282-2.734375 2.738282-7.167969.007813-9.902344-2.734375-2.734375-7.167969-2.738281-9.902344-.007813l-10.398437 10.402344v-14.503906c0-3.867188-3.136719-7-7-7-3.867188 0-7 3.132812-7 7v14.5l-10.402344-10.402344c-2.734375-2.730468-7.164063-2.730468-9.898438 0-2.734375 2.734375-2.734375 7.167969 0 9.902344l20.300782 20.308594v5.867187c-5.433594 2.035157-9.722657 6.324219-11.757813 11.753907h-5.886719l-20.296875-20.300782c-2.761719-2.535156-7.027343-2.445312-9.679687.199219-2.652344 2.648437-2.75 6.914063-.222656 9.679687l10.402343 10.398438h-14.5c-3.867187 0-7 3.136719-7 7 0 3.867188 3.132813 7 7 7h14.5l-10.402343 10.402344c-2.730469 2.734375-2.730469 7.164062 0 9.898437 2.734374 2.734375 7.167968 2.734375 9.902343 0l20.296875-20.300781h5.867188c2.035156 5.433594 6.324218 9.71875 11.753906 11.757812v5.867188l-20.292969 20.296875c-2.734375 2.734375-2.734375 7.164063 0 9.898437 2.730469 2.734376 7.164063 2.734376 9.898438 0l10.398437-10.398437v14.503906c0 3.867188 3.136719 7 7 7 3.867188 0 7-3.132812 7-7v-14.503906l10.402344 10.398437c2.734375 2.734376 7.164062 2.734376 9.898438 0 2.734374-2.734374 2.734374-7.164062 0-9.898437l-20.28125-20.28125v-5.867187c5.429687-2.042969 9.707031-6.335938 11.738281-11.773438h5.859375l20.296875 20.296875c2.734375 2.734375 7.164062 2.734375 9.898437 0s2.734375-7.164063 0-9.898437l-10.398437-10.402344h14.5c3.867187 0 7-3.132813 7-7 0-3.863282-3.132813-7-7-7zm-58.921875 13.085938c-3.359375 0-6.082031-2.726563-6.082031-6.085938s2.722656-6.082031 6.082031-6.082031c3.363282 0 6.085938 2.722656 6.085938 6.082031.003906 3.367188-2.71875 6.097656-6.085938 6.101562zm0 0" fill="#26a3b9"/><path d="m224.636719 326.632812 10.398437 10.402344v-6.035156l-4.351562-4.367188c-2.101563-2.089843-5.292969-2.625-7.964844-1.335937.710938.335937 1.359375.789063 1.917969 1.335937zm0 0" fill="#168aa5"/><path d="m249.03125 322.53125v14.5l6.054688-6.03125v-8.46875c.007812-2.402344-1.222657-4.644531-3.253907-5.921875-2.035156-1.28125-4.585937-1.421875-6.746093-.371094 2.414062 1.164063 3.949218 3.609375 3.945312 6.292969zm0 0" fill="#168aa5"/><path d="m197.113281 354.160156 20.292969 20.292969h5.871094c0-.039063.039062-.070313.054687-.105469l-20.1875-20.1875c-2.101562-2.09375-5.296875-2.628906-7.964843-1.335937.714843.332031 1.367187.78125 1.933593 1.335937zm0 0" fill="#168aa5"/><path d="m296.851562 354.160156c1.3125 1.3125 2.050782 3.089844 2.050782 4.949219 0 1.855469-.738282 3.636719-2.050782 4.949219l-10.398437 10.398437h6.03125l10.398437-10.398437c2.386719-2.410156 2.695313-6.1875.734376-8.957032-1.964844-2.765624-5.632813-3.722656-8.695313-2.261718.710937.328125 1.367187.773437 1.929687 1.320312zm0 0" fill="#168aa5"/><path d="m241.980469 381.453125c.007812-2.171875 1.179687-4.175781 3.066406-5.25-.914063-.539063-1.953125-.828125-3.015625-.832031-3.359375 0-6.085938 2.722656-6.085938 6.085937 0 3.359375 2.726563 6.085938 6.085938 6.085938 1.0625-.007813 2.101562-.292969 3.015625-.832031-1.890625-1.074219-3.058594-3.082032-3.066406-5.257813zm0 0" fill="#168aa5"/><path d="m269.328125 326.632812c1.3125 1.3125 2.050781 3.09375 2.050781 4.953126 0 1.855468-.738281 3.636718-2.050781 4.949218l-20.296875 20.304688v5.867187c5.433594 2.035157 9.71875 6.324219 11.757812 11.753907h5.867188l.109375-.105469c-2.042969-5.378907-6.296875-9.625-11.679687-11.65625v-5.859375l20.292968-20.296875c2.414063-2.40625 2.738282-6.203125.765625-8.984375-1.96875-2.777344-5.660156-3.730469-8.726562-2.253906.707031.332031 1.351562.78125 1.910156 1.328124zm0 0" fill="#168aa5"/><path d="m292.488281 388.4375h-6.03125l10.398438 10.402344c1.625 1.59375 2.363281 3.878906 1.980469 6.125-.386719 2.242187-1.847657 4.152344-3.910157 5.109375 3.066407 1.480469 6.757813.527343 8.726563-2.253907 1.972656-2.777343 1.648437-6.574218-.765625-8.980468zm0 0" fill="#168aa5"/><path d="m306.988281 374.4375h-6.03125c3.863281 0 7 3.136719 7 7 0 3.867188-3.136719 7-7 7h6.03125c3.867188 0 7-3.132812 7-7 0-3.863281-3.132812-7-7-7zm0 0" fill="#168aa5"/><path d="m255.085938 406.078125v-5.867187c5.386718-2.027344 9.648437-6.265626 11.699218-11.648438l-.128906-.125h-5.867188c-2.039062 5.433594-6.324218 9.71875-11.757812 11.757812v5.867188l20.296875 20.296875c1.625 1.59375 2.363281 3.882813 1.976563 6.125-.382813 2.242187-1.84375 4.152344-3.910157 5.109375 3.070313 1.480469 6.761719.527344 8.730469-2.253906 1.96875-2.777344 1.648438-6.574219-.765625-8.980469zm0 0" fill="#168aa5"/><path d="m235.03125 425.875-10.398438 10.398438c-.5625.554687-1.21875 1.003906-1.933593 1.335937 2.667969 1.292969 5.863281.757813 7.964843-1.335937l4.363282-4.363282zm0 0" fill="#168aa5"/><path d="m249.03125 425.875v14.503906c-.007812 2.691406-1.5625 5.140625-4 6.292969 2.164062 1.046875 4.714844.910156 6.746094-.371094 2.035156-1.28125 3.265625-3.519531 3.253906-5.921875v-8.472656zm0 0" fill="#168aa5"/><path d="m223.277344 388.4375h-5.871094l-20.292969 20.296875c-.566406.550781-1.21875 1.003906-1.933593 1.335937 2.664062 1.316407 5.875.777344 7.964843-1.335937l20.1875-20.1875c-.015625-.019531-.039062-.050781-.054687-.109375zm0 0" fill="#168aa5"/><path d="m215.3125 270.484375c0 7.222656-5.859375 13.082031-13.085938 13.082031-7.222656 0-13.082031-5.859375-13.082031-13.082031 0-7.226563 5.859375-13.085937 13.082031-13.085937 7.226563 0 13.085938 5.859374 13.085938 13.085937zm150.648438 54.753906c-9.664063.011719-17.488282 7.851563-17.484376 17.511719.003907 9.664062 7.835938 17.496094 17.5 17.496094 9.660157.003906 17.5-7.824219 17.507813-17.488282.003906-4.648437-1.839844-9.105468-5.128906-12.394531-3.285157-3.285156-7.746094-5.128906-12.394531-5.125zm-236.988282 64.125c-7.976562 0-14.445312 6.464844-14.445312 14.441407 0 7.980468 6.46875 14.445312 14.445312 14.445312 7.976563 0 14.445313-6.464844 14.445313-14.445312 0-7.976563-6.46875-14.441407-14.445313-14.441407zm0 0" fill="#d9ecf2"/><path d="m202.226562 257.398438c-1.839843.003906-3.660156.402343-5.339843 1.164062 4.710937 2.09375 7.746093 6.765625 7.746093 11.921875s-3.035156 9.828125-7.746093 11.921875c4.871093 2.183594 10.578125 1.1875 14.417969-2.511719 3.84375-3.699219 5.054687-9.367187 3.058593-14.3125-1.996093-4.949219-6.800781-8.1875-12.136719-8.183593zm0 0" fill="#bdd9e5"/><path d="m128.972656 389.359375c-1.832031.003906-3.644531.359375-5.339844 1.046875 5.507813 2.167969 9.125 7.484375 9.125 13.398438 0 5.917968-3.617187 11.234374-9.125 13.402343 5.402344 2.15625 11.566407.859375 15.644532-3.289062 4.074218-4.148438 5.261718-10.339844 3.011718-15.703125-2.25-5.359375-7.5-8.847656-13.316406-8.84375zm0 0" fill="#bdd9e5"/><path d="m365.960938 325.238281c-1.816407.023438-3.621094.335938-5.339844.921875 7.238281 2.28125 12.15625 8.996094 12.15625 16.585938s-4.917969 14.300781-12.15625 16.585937c1.71875.582031 3.523437.894531 5.339844.917969 9.667968 0 17.503906-7.835938 17.503906-17.503906 0-9.667969-7.835938-17.503906-17.503906-17.503906zm0 0" fill="#bdd9e5"/></svg>