<svg id="bold" enable-background="new 0 0 32 32" height="512" viewBox="0 0 32 32" width="512" xmlns="http://www.w3.org/2000/svg"><path d="m26 32h-20c-3.314 0-6-2.686-6-6v-20c0-3.314 2.686-6 6-6h20c3.314 0 6 2.686 6 6v20c0 3.314-2.686 6-6 6z" fill="#f5e6fe"/><path d="m16 18.667c-.368 0-.667-.299-.667-.667v-.228c0-.697.364-1.329.927-1.612.268-.134.484-.503.379-.946-.06-.252-.246-.462-.464-.522-.223-.062-.435-.031-.594.09-.16.122-.248.317-.248.551 0 .368-.299.667-.667.667s-.666-.299-.666-.667c0-.651.283-1.24.776-1.614.492-.374 1.133-.487 1.759-.312.68.19 1.23.778 1.401 1.497.239 1.003-.204 2.009-1.077 2.447-.111.056-.192.232-.192.42v.229c0 .368-.299.667-.667.667z" fill="#d9a4fc"/><circle cx="16" cy="20" fill="#d9a4fc" r=".667"/><path d="m22 8.667h-12c-1.103 0-2 .897-2 2v10.667c0 1.103.897 2 2 2h12c1.103 0 2-.897 2-2v-10.667c0-1.103-.897-2-2-2zm0 13.333h-12c-.368 0-.667-.299-.667-.667v-9.333h13.333v9.333c.001.368-.298.667-.666.667z" fill="#be63f9"/></svg>